<svg id="Capa_1" enable-background="new 0 0 512 512" height="512" viewBox="0 0 512 512" width="512" xmlns="http://www.w3.org/2000/svg"><g><g><path d="m295.199 105.776c-2.168-7.983 2.549-16.23 10.547-18.398 27.598-7.5 48.164-30.073 53.73-57.378h-43.476c-8.291 0-15-6.709-15-15s6.709-15 15-15h60c8.291 0 15 6.709 15 15 0 47.285-31.816 88.945-77.402 101.323-7.725 2.146-16.169-2.348-18.399-10.547z" fill="#fa3"/></g><g><path d="m271 135v90c0 8.399-6.599 15-15 15s-15-6.601-15-15v-90c0-8.401 6.599-15 15-15s15 6.599 15 15z" fill="#ffd24d"/></g><path d="m271 135v90c0 8.399-6.599 15-15 15v-120c8.401 0 15 6.599 15 15z" fill="#fa3"/><g><path d="m198.402 116.323c-45.586-12.378-77.402-54.038-77.402-101.323 0-8.291 6.709-15 15-15h60c8.291 0 15 6.709 15 15s-6.709 15-15 15h-43.477c5.566 27.305 26.133 49.878 53.73 57.378 7.998 2.168 12.715 10.415 10.547 18.398-2.23 8.202-10.677 12.692-18.398 10.547z" fill="#ffd24d"/></g><g><path d="m316 300h-120c-8.401 0-15 6.599-15 15v182c0 8.399 6.599 15 15 15h120c8.401 0 15-6.601 15-15v-182c0-8.401-6.599-15-15-15z" fill="#ff884d"/></g><path d="m466 120h-15v-15c0-8.291-6.709-15-15-15s-15 6.709-15 15v15h-15c-8.291 0-15 6.709-15 15s6.709 15 15 15h15v15c0 8.291 6.709 15 15 15s15-6.709 15-15v-15h15c8.291 0 15-6.709 15-15s-6.709-15-15-15z" fill="#ffe6b3"/><path d="m106 90h-15v-15c0-8.291-6.709-15-15-15s-15 6.709-15 15v15h-15c-8.291 0-15 6.709-15 15s6.709 15 15 15h15v15c0 8.291 6.709 15 15 15s15-6.709 15-15v-15h15c8.291 0 15-6.709 15-15s-6.709-15-15-15z" fill="#fff7cc"/><g><path d="m497 512h-121c-8.291 0-15-6.709-15-15v-122c0-8.291 6.709-15 15-15h121c8.291 0 15 6.709 15 15v122c0 8.291-6.709 15-15 15z" fill="#80aaff"/></g><g><path d="m136 512h-121c-8.291 0-15-6.709-15-15v-61c0-8.291 6.709-15 15-15h121c8.291 0 15 6.709 15 15v61c0 8.291-6.709 15-15 15z" fill="#ffea80"/></g><path d="m331 315v182c0 8.399-6.599 15-15 15h-60v-212h60c8.401 0 15 6.599 15 15z" fill="#ff4d4d"/><g><path d="m316 0h-120c-8.401 0-15 6.599-15 15v60c0 41.4 33.6 75 75 75s75-33.6 75-75v-60c0-8.401-6.599-15-15-15z" fill="#ffea80"/></g><path d="m331 15v60c0 41.4-33.6 75-75 75v-150h60c8.401 0 15 6.599 15 15z" fill="#ffd24d"/><g><path d="m301 210h-90c-16.5 0-30 13.5-30 30v15c0 8.399 6.599 15 15 15h120c8.401 0 15-6.601 15-15v-15c0-16.5-13.5-30-30-30z" fill="#ffea80"/></g><path d="m331 240v15c0 8.399-6.599 15-15 15h-60v-60h45c16.5 0 30 13.5 30 30z" fill="#ffd24d"/></g></svg>